<svg xmlns="http://www.w3.org/2000/svg" id="export" class="canvas" preserveAspectRatio="xMidYMid meet" style="" width="171" height="1415"><rect id="background" fill="#fff" pointer-events="all" width="171" height="1415"/><g id="origin" transform="translate(7.7377265930175785, 7.7377265930175785) scale(1)"><g id="clusters" class="clusters"/><g id="edge-paths" class="edge-paths" style="pointer-events: none;"><defs><marker id="arrowhead" viewBox="0 0 10 10" refX="9" refY="5" markerUnits="strokeWidth" markerWidth="8" markerHeight="6" orient="auto" style="fill: rgb(0, 0, 0);"><path d="M 0 0 L 10 5 L 0 10 L 4 5 z" style="stroke-width: 1;"/></marker><marker id="arrowhead-select" viewBox="0 0 10 10" refX="9" refY="5" markerUnits="strokeWidth" markerWidth="8" markerHeight="6" orient="auto" style="fill: rgba(220, 0, 0, 0.9);"><path d="M 0 0 L 10 5 L 0 10 L 4 5 z" style="stroke-width: 1;"/></marker><marker id="arrowhead-hover" viewBox="0 0 10 10" refX="9" refY="5" markerUnits="strokeWidth" markerWidth="8" markerHeight="6" orient="auto" style="fill: rgba(220, 0, 0, 0.9);"><path d="M 0 0 L 10 5 L 0 10 L 4 5 z" style="stroke-width: 1;"/></marker></defs><path id="edge-input_rgba_chunky" class="edge-path" d="M75.07453918457031,20L75.07453918457031,21.666666666666668C75.07453918457031,23.333333333333332,75.07453918457031,26.666666666666668,75.07453918457031,31.75C75.07453918457031,36.833333333333336,75.07453918457031,43.666666666666664,75.07453918457031,50.5C75.07453918457031,57.333333333333336,75.07453918457031,64.16666666666667,75.07453918457031,69.25C75.07453918457031,74.33333333333333,75.07453918457031,77.66666666666667,75.07453918457031,79.33333333333333L75.07453918457031,81" style="stroke: rgb(0, 0, 0); stroke-width: 1px; fill: none; marker-end: url(&quot;#arrowhead&quot;);"/><path id="edge-input_rgba_chunky_transposed_planar" class="edge-path" d="M75.07453918457031,119L75.07453918457031,122.41666666666667C75.07453918457031,125.83333333333333,75.07453918457031,132.66666666666666,75.07453918457031,139.5C75.07453918457031,146.33333333333334,75.07453918457031,153.16666666666666,75.07453918457031,156.58333333333334L75.07453918457031,160" style="stroke: rgb(0, 0, 0); stroke-width: 1px; fill: none; marker-end: url(&quot;#arrowhead&quot;);"/><path id="edge-input_rgba_float16_planar" class="edge-path" d="M75.07453918457031,198L75.07453918457031,201.41666666666666C75.07453918457031,204.83333333333334,75.07453918457031,211.66666666666666,75.07453918457031,218.5C75.07453918457031,225.33333333333334,75.07453918457031,232.16666666666666,75.07453918457031,235.58333333333334L75.07453918457031,239" style="stroke: rgb(0, 0, 0); stroke-width: 1px; fill: none; marker-end: url(&quot;#arrowhead&quot;);"/><path id="edge-input_rgba_float16_normalized" class="edge-path" d="M75.07453918457031,277L75.07453918457031,280.4166666666667C75.07453918457031,283.8333333333333,75.07453918457031,290.6666666666667,75.07453918457031,297.5C75.07453918457031,304.3333333333333,75.07453918457031,311.1666666666667,75.07453918457031,314.5833333333333L75.07453918457031,318" style="stroke: rgb(0, 0, 0); stroke-width: 1px; fill: none; marker-end: url(&quot;#arrowhead&quot;);"/><path id="edge-input_rgb_float16_normalized" class="edge-path" d="M75.07453918457031,380L75.07453918457031,383.4166666666667C75.07453918457031,386.8333333333333,75.07453918457031,393.6666666666667,75.07453918457031,400.5C75.07453918457031,407.3333333333333,75.07453918457031,414.1666666666667,75.07453918457031,417.5833333333333L75.07453918457031,421" style="stroke: rgb(0, 0, 0); stroke-width: 1px; fill: none; marker-end: url(&quot;#arrowhead&quot;);"/><path id="edge-/conv1/conv1.0/Conv_output_0" class="edge-path" d="M75.07453918457031,519L75.07453918457031,522.4166666666666C75.07453918457031,525.8333333333334,75.07453918457031,532.6666666666666,75.07453918457031,539.5C75.07453918457031,546.3333333333334,75.07453918457031,553.1666666666666,75.07453918457031,556.5833333333334L75.07453918457031,560" style="stroke: rgb(0, 0, 0); stroke-width: 1px; fill: none; marker-end: url(&quot;#arrowhead&quot;);"/><path id="edge-/conv1/conv1.1/Relu_output_0" class="edge-path" d="M75.07453918457031,580L75.07453918457031,583.4166666666666C75.07453918457031,586.8333333333334,75.07453918457031,593.6666666666666,75.07453918457031,600.5C75.07453918457031,607.3333333333334,75.07453918457031,614.1666666666666,75.07453918457031,617.5833333333334L75.07453918457031,621" style="stroke: rgb(0, 0, 0); stroke-width: 1px; fill: none; marker-end: url(&quot;#arrowhead&quot;);"/><path id="edge-/conv2/conv2.0/Conv_output_0" class="edge-path" d="M75.07453918457031,719L75.07453918457031,722.4166666666666C75.07453918457031,725.8333333333334,75.07453918457031,732.6666666666666,75.07453918457031,739.5C75.07453918457031,746.3333333333334,75.07453918457031,753.1666666666666,75.07453918457031,756.5833333333334L75.07453918457031,760" style="stroke: rgb(0, 0, 0); stroke-width: 1px; fill: none; marker-end: url(&quot;#arrowhead&quot;);"/><path id="edge-/conv2/conv2.1/Relu_output_0" class="edge-path" d="M75.07453918457031,780L75.07453918457031,783.4166666666666C75.07453918457031,786.8333333333334,75.07453918457031,793.6666666666666,75.07453918457031,800.5C75.07453918457031,807.3333333333334,75.07453918457031,814.1666666666666,75.07453918457031,817.5833333333334L75.07453918457031,821" style="stroke: rgb(0, 0, 0); stroke-width: 1px; fill: none; marker-end: url(&quot;#arrowhead&quot;);"/><path id="edge-/conv3/Conv_output_0" class="edge-path" d="M75.07453918457031,919L75.07453918457031,922.4166666666666C75.07453918457031,925.8333333333334,75.07453918457031,932.6666666666666,75.07453918457031,939.5C75.07453918457031,946.3333333333334,75.07453918457031,953.1666666666666,75.07453918457031,956.5833333333334L75.07453918457031,960" style="stroke: rgb(0, 0, 0); stroke-width: 1px; fill: none; marker-end: url(&quot;#arrowhead&quot;);"/><path id="edge-/Mul_output_0" class="edge-path" d="M75.07453918457031,998L75.07453918457031,1001.4166666666666C75.07453918457031,1004.8333333333334,75.07453918457031,1011.6666666666666,75.07453918457031,1018.5C75.07453918457031,1025.3333333333333,75.07453918457031,1032.1666666666667,75.07453918457031,1035.5833333333333L75.07453918457031,1039" style="stroke: rgb(0, 0, 0); stroke-width: 1px; fill: none; marker-end: url(&quot;#arrowhead&quot;);"/><path id="edge-output_rgba_float16_scaled" class="edge-path" d="M75.07453918457031,1089L75.07453918457031,1092.4166666666667C75.07453918457031,1095.8333333333333,75.07453918457031,1102.6666666666667,75.07453918457031,1109.5C75.07453918457031,1116.3333333333333,75.07453918457031,1123.1666666666667,75.07453918457031,1126.5833333333333L75.07453918457031,1130" style="stroke: rgb(0, 0, 0); stroke-width: 1px; fill: none; marker-end: url(&quot;#arrowhead&quot;);"/><path id="edge-output_rgba_float16_clipped" class="edge-path" d="M75.07453918457031,1180L75.07453918457031,1183.4166666666667C75.07453918457031,1186.8333333333333,75.07453918457031,1193.6666666666667,75.07453918457031,1200.5C75.07453918457031,1207.3333333333333,75.07453918457031,1214.1666666666667,75.07453918457031,1217.5833333333333L75.07453918457031,1221" style="stroke: rgb(0, 0, 0); stroke-width: 1px; fill: none; marker-end: url(&quot;#arrowhead&quot;);"/><path id="edge-output_rgba_uint8_planar" class="edge-path" d="M75.07453918457031,1259L75.07453918457031,1262.4166666666667C75.07453918457031,1265.8333333333333,75.07453918457031,1272.6666666666667,75.07453918457031,1279.5C75.07453918457031,1286.3333333333333,75.07453918457031,1293.1666666666667,75.07453918457031,1296.5833333333333L75.07453918457031,1300" style="stroke: rgb(0, 0, 0); stroke-width: 1px; fill: none; marker-end: url(&quot;#arrowhead&quot;);"/><path id="edge-output_rgba_uint8_chunky" class="edge-path" d="M75.07453918457031,1338L75.07453918457031,1341.4166666666667C75.07453918457031,1344.8333333333333,75.07453918457031,1351.6666666666667,75.07453918457031,1358.5C75.07453918457031,1365.3333333333333,75.07453918457031,1372.1666666666667,75.07453918457031,1375.5833333333333L75.07453918457031,1379" style="stroke: rgb(0, 0, 0); stroke-width: 1px; fill: none; marker-end: url(&quot;#arrowhead&quot;);"/></g><g id="edge-labels" class="edge-labels"><text class="edge-label" id="edge-label-edge-input_rgba_chunky" transform="translate(80.07453918457031,45)" style="opacity: 1; font-family: -apple-system, BlinkMacSystemFont, &quot;Segoe WPC&quot;, &quot;Segoe UI&quot;, Ubuntu, &quot;Droid Sans&quot;, sans-serif, &quot;PingFang SC&quot;; font-size: 10px;"><tspan xml:space="preserve" dy="1em" x="1">1×576×752×4</tspan></text><text class="edge-label" id="edge-label-edge-input_rgba_chunky_transposed_planar" transform="translate(80.07453918457031,134)" style="opacity: 1; font-family: -apple-system, BlinkMacSystemFont, &quot;Segoe WPC&quot;, &quot;Segoe UI&quot;, Ubuntu, &quot;Droid Sans&quot;, sans-serif, &quot;PingFang SC&quot;; font-size: 10px;"><tspan xml:space="preserve" dy="1em" x="1">1×4×576×752</tspan></text><text class="edge-label" id="edge-label-edge-input_rgba_float16_planar" transform="translate(80.07453918457031,213)" style="opacity: 1; font-family: -apple-system, BlinkMacSystemFont, &quot;Segoe WPC&quot;, &quot;Segoe UI&quot;, Ubuntu, &quot;Droid Sans&quot;, sans-serif, &quot;PingFang SC&quot;; font-size: 10px;"><tspan xml:space="preserve" dy="1em" x="1">1×4×576×752</tspan></text><text class="edge-label" id="edge-label-edge-input_rgba_float16_normalized" transform="translate(80.07453918457031,292)" style="opacity: 1; font-family: -apple-system, BlinkMacSystemFont, &quot;Segoe WPC&quot;, &quot;Segoe UI&quot;, Ubuntu, &quot;Droid Sans&quot;, sans-serif, &quot;PingFang SC&quot;; font-size: 10px;"><tspan xml:space="preserve" dy="1em" x="1">1×4×576×752</tspan></text><text class="edge-label" id="edge-label-edge-input_rgb_float16_normalized" transform="translate(80.07453918457031,395)" style="opacity: 1; font-family: -apple-system, BlinkMacSystemFont, &quot;Segoe WPC&quot;, &quot;Segoe UI&quot;, Ubuntu, &quot;Droid Sans&quot;, sans-serif, &quot;PingFang SC&quot;; font-size: 10px;"><tspan xml:space="preserve" dy="1em" x="1">1×3×576×752</tspan></text><text class="edge-label" id="edge-label-edge-/conv1/conv1.0/Conv_output_0" transform="translate(80.07453918457031,534)" style="opacity: 1; font-family: -apple-system, BlinkMacSystemFont, &quot;Segoe WPC&quot;, &quot;Segoe UI&quot;, Ubuntu, &quot;Droid Sans&quot;, sans-serif, &quot;PingFang SC&quot;; font-size: 10px;"><tspan xml:space="preserve" dy="1em" x="1">1×192×576×752</tspan></text><text class="edge-label" id="edge-label-edge-/conv1/conv1.1/Relu_output_0" transform="translate(80.07453918457031,595)" style="opacity: 1; font-family: -apple-system, BlinkMacSystemFont, &quot;Segoe WPC&quot;, &quot;Segoe UI&quot;, Ubuntu, &quot;Droid Sans&quot;, sans-serif, &quot;PingFang SC&quot;; font-size: 10px;"><tspan xml:space="preserve" dy="1em" x="1">1×192×576×752</tspan></text><text class="edge-label" id="edge-label-edge-/conv2/conv2.0/Conv_output_0" transform="translate(80.07453918457031,734)" style="opacity: 1; font-family: -apple-system, BlinkMacSystemFont, &quot;Segoe WPC&quot;, &quot;Segoe UI&quot;, Ubuntu, &quot;Droid Sans&quot;, sans-serif, &quot;PingFang SC&quot;; font-size: 10px;"><tspan xml:space="preserve" dy="1em" x="1">1×256×576×752</tspan></text><text class="edge-label" id="edge-label-edge-/conv2/conv2.1/Relu_output_0" transform="translate(80.07453918457031,795)" style="opacity: 1; font-family: -apple-system, BlinkMacSystemFont, &quot;Segoe WPC&quot;, &quot;Segoe UI&quot;, Ubuntu, &quot;Droid Sans&quot;, sans-serif, &quot;PingFang SC&quot;; font-size: 10px;"><tspan xml:space="preserve" dy="1em" x="1">1×256×576×752</tspan></text><text class="edge-label" id="edge-label-edge-/conv3/Conv_output_0" transform="translate(80.07453918457031,934)" style="opacity: 1; font-family: -apple-system, BlinkMacSystemFont, &quot;Segoe WPC&quot;, &quot;Segoe UI&quot;, Ubuntu, &quot;Droid Sans&quot;, sans-serif, &quot;PingFang SC&quot;; font-size: 10px;"><tspan xml:space="preserve" dy="1em" x="1">1×3×576×752</tspan></text><text class="edge-label" id="edge-label-edge-/Mul_output_0" transform="translate(80.07453918457031,1013)" style="opacity: 1; font-family: -apple-system, BlinkMacSystemFont, &quot;Segoe WPC&quot;, &quot;Segoe UI&quot;, Ubuntu, &quot;Droid Sans&quot;, sans-serif, &quot;PingFang SC&quot;; font-size: 10px;"><tspan xml:space="preserve" dy="1em" x="1">1×3×576×752</tspan></text><text class="edge-label" id="edge-label-edge-output_rgba_float16_scaled" transform="translate(80.07453918457031,1104)" style="opacity: 1; font-family: -apple-system, BlinkMacSystemFont, &quot;Segoe WPC&quot;, &quot;Segoe UI&quot;, Ubuntu, &quot;Droid Sans&quot;, sans-serif, &quot;PingFang SC&quot;; font-size: 10px;"><tspan xml:space="preserve" dy="1em" x="1">1×4×576×752</tspan></text><text class="edge-label" id="edge-label-edge-output_rgba_float16_clipped" transform="translate(80.07453918457031,1195)" style="opacity: 1; font-family: -apple-system, BlinkMacSystemFont, &quot;Segoe WPC&quot;, &quot;Segoe UI&quot;, Ubuntu, &quot;Droid Sans&quot;, sans-serif, &quot;PingFang SC&quot;; font-size: 10px;"><tspan xml:space="preserve" dy="1em" x="1">1×4×576×752</tspan></text><text class="edge-label" id="edge-label-edge-output_rgba_uint8_planar" transform="translate(80.07453918457031,1274)" style="opacity: 1; font-family: -apple-system, BlinkMacSystemFont, &quot;Segoe WPC&quot;, &quot;Segoe UI&quot;, Ubuntu, &quot;Droid Sans&quot;, sans-serif, &quot;PingFang SC&quot;; font-size: 10px;"><tspan xml:space="preserve" dy="1em" x="1">1×4×576×752</tspan></text><text class="edge-label" id="edge-label-edge-output_rgba_uint8_chunky" transform="translate(80.07453918457031,1353)" style="opacity: 1; font-family: -apple-system, BlinkMacSystemFont, &quot;Segoe WPC&quot;, &quot;Segoe UI&quot;, Ubuntu, &quot;Droid Sans&quot;, sans-serif, &quot;PingFang SC&quot;; font-size: 10px;"><tspan xml:space="preserve" dy="1em" x="1">1×576×752×4</tspan></text></g><g id="nodes" class="nodes"><g id="input-name-input_rgba_chunky" class="node graph-input" transform="translate(19.623855590820312,0)" style=""><g class="node-item graph-item-input" transform="translate(0,0)"><path d="M5,0h100.9013671875a5,5 0 0 1 5,5v10a5,5 0 0 1 -5,5h-100.9013671875a5,5 0 0 1 -5,-5v-10a5,5 0 0 1 5,-5z" style="stroke: rgb(0, 0, 0); fill: rgb(238, 238, 238); stroke-width: 0;"/><text x="6" y="13" style="font-family: -apple-system, BlinkMacSystemFont, &quot;Segoe WPC&quot;, &quot;Segoe UI&quot;, Ubuntu, &quot;Droid Sans&quot;, sans-serif, &quot;PingFang SC&quot;; font-size: 11px; text-rendering: geometricprecision; user-select: none;">input_rgba_chunky</text><title>uint8[1,576,752,4]</title></g><path class="node node-border" d="M5,0h100.9013671875a5,5 0 0 1 5,5v10a5,5 0 0 1 -5,5h-100.9013671875a5,5 0 0 1 -5,-5v-10a5,5 0 0 1 5,-5z" style="stroke: rgb(51, 51, 51); fill: none; stroke-width: 1px;"/></g><g id="node-name-Transpose_Chunky_to_Planar" class="node graph-node" transform="translate(36.237953186035156,81)" style=""><g class="node-item node-item-type node-item-type-transform" transform="translate(0,0)"><path d="M5,0h67.67317199707031a5,5 0 0 1 5,5v15a0,0 0 0 1 0,0h-77.67317199707031a0,0 0 0 1 0,0v-15a5,5 0 0 1 5,-5z" style="stroke: rgb(0, 0, 0); fill: rgb(51, 85, 68); stroke-width: 0;"/><text x="6" y="13" style="font-family: -apple-system, BlinkMacSystemFont, &quot;Segoe WPC&quot;, &quot;Segoe UI&quot;, Ubuntu, &quot;Droid Sans&quot;, sans-serif, &quot;PingFang SC&quot;; font-size: 11px; text-rendering: geometricprecision; user-select: none; fill: rgb(255, 255, 255);">Transpose</text><title>Transpose_Chunky_to_Planar</title></g><g class="node-argument-list" transform="translate(0,20)"><path d="M0,0h77.67317199707031a0,0 0 0 1 0,0v13a5,5 0 0 1 -5,5h-67.67317199707031a5,5 0 0 1 -5,-5v-13a0,0 0 0 1 0,0z" style="stroke: rgb(0, 0, 0); fill: rgb(255, 255, 255); stroke-width: 0;"/><g class="node-argument"><rect rx="3" ry="3" x="3" y="3" width="71.67317199707031" height="12" style="fill: transparent;"/><text xml:space="preserve" x="6" y="12" style="font-family: -apple-system, BlinkMacSystemFont, &quot;Segoe WPC&quot;, &quot;Segoe UI&quot;, Ubuntu, &quot;Droid Sans&quot;, sans-serif, &quot;PingFang SC&quot;; font-size: 9px; font-weight: normal; text-rendering: geometricprecision; user-select: none;"><title>int64[]</title><tspan>perm</tspan><tspan> = 0, 3, 1, 2</tspan></text></g><line class="node" x1="0" x2="77.67317199707031" y1="0" y2="0" style="stroke: rgb(51, 51, 51); fill: none; stroke-width: 1px;"/></g><path class="node node-border" d="M5,0h67.67317199707031a5,5 0 0 1 5,5v28a5,5 0 0 1 -5,5h-67.67317199707031a5,5 0 0 1 -5,-5v-28a5,5 0 0 1 5,-5z" style="stroke: rgb(51, 51, 51); fill: none; stroke-width: 1px;"/></g><g id="node-name-Cast_Input_To_FP16" class="node graph-node" transform="translate(37.57453918457031,160)" style=""><g class="node-item node-item-type" transform="translate(0,0)"><path d="M5,0h65a5,5 0 0 1 5,5v15a0,0 0 0 1 0,0h-75a0,0 0 0 1 0,0v-15a5,5 0 0 1 5,-5z" style="stroke: rgb(0, 0, 0); fill: rgb(0, 0, 0); stroke-width: 0;"/><text x="6" y="13" style="font-family: -apple-system, BlinkMacSystemFont, &quot;Segoe WPC&quot;, &quot;Segoe UI&quot;, Ubuntu, &quot;Droid Sans&quot;, sans-serif, &quot;PingFang SC&quot;; font-size: 11px; text-rendering: geometricprecision; user-select: none; fill: rgb(255, 255, 255);">Cast</text><title>Cast_Input_To_FP16</title></g><g class="node-argument-list" transform="translate(0,20)"><path d="M0,0h75a0,0 0 0 1 0,0v13a5,5 0 0 1 -5,5h-65a5,5 0 0 1 -5,-5v-13a0,0 0 0 1 0,0z" style="stroke: rgb(0, 0, 0); fill: rgb(255, 255, 255); stroke-width: 0;"/><g class="node-argument"><rect rx="3" ry="3" x="3" y="3" width="69" height="12" style="fill: transparent;"/><text xml:space="preserve" x="6" y="12" style="font-family: -apple-system, BlinkMacSystemFont, &quot;Segoe WPC&quot;, &quot;Segoe UI&quot;, Ubuntu, &quot;Droid Sans&quot;, sans-serif, &quot;PingFang SC&quot;; font-size: 9px; font-weight: normal; text-rendering: geometricprecision; user-select: none;"><title>DataType</title><tspan>to</tspan><tspan> = float16</tspan></text></g><line class="node" x1="0" x2="75" y1="0" y2="0" style="stroke: rgb(51, 51, 51); fill: none; stroke-width: 1px;"/></g><path class="node node-border" d="M5,0h65a5,5 0 0 1 5,5v28a5,5 0 0 1 -5,5h-65a5,5 0 0 1 -5,-5v-28a5,5 0 0 1 5,-5z" style="stroke: rgb(51, 51, 51); fill: none; stroke-width: 1px;"/></g><g id="node-name-Div_Input_By_255" class="node graph-node" transform="translate(37.57453918457031,239)" style=""><g class="node-item node-item-type" transform="translate(0,0)"><path d="M5,0h65a5,5 0 0 1 5,5v15a0,0 0 0 1 0,0h-75a0,0 0 0 1 0,0v-15a5,5 0 0 1 5,-5z" style="stroke: rgb(0, 0, 0); fill: rgb(0, 0, 0); stroke-width: 0;"/><text x="6" y="13" style="font-family: -apple-system, BlinkMacSystemFont, &quot;Segoe WPC&quot;, &quot;Segoe UI&quot;, Ubuntu, &quot;Droid Sans&quot;, sans-serif, &quot;PingFang SC&quot;; font-size: 11px; text-rendering: geometricprecision; user-select: none; fill: rgb(255, 255, 255);">Div</text><title>Div_Input_By_255</title></g><g class="node-argument-list" transform="translate(0,20)"><path d="M0,0h75a0,0 0 0 1 0,0v13a5,5 0 0 1 -5,5h-65a5,5 0 0 1 -5,-5v-13a0,0 0 0 1 0,0z" style="stroke: rgb(0, 0, 0); fill: rgb(255, 255, 255); stroke-width: 0;"/><g class="node-argument"><rect rx="3" ry="3" x="3" y="3" width="69" height="12" style="fill: transparent;"/><text xml:space="preserve" x="6" y="12" style="font-family: -apple-system, BlinkMacSystemFont, &quot;Segoe WPC&quot;, &quot;Segoe UI&quot;, Ubuntu, &quot;Droid Sans&quot;, sans-serif, &quot;PingFang SC&quot;; font-size: 9px; font-weight: normal; text-rendering: geometricprecision; user-select: none;"><title>float16</title><tspan>B</tspan><tspan> = 255</tspan></text></g><line class="node" x1="0" x2="75" y1="0" y2="0" style="stroke: rgb(51, 51, 51); fill: none; stroke-width: 1px;"/></g><path class="node node-border" d="M5,0h65a5,5 0 0 1 5,5v28a5,5 0 0 1 -5,5h-65a5,5 0 0 1 -5,-5v-28a5,5 0 0 1 5,-5z" style="stroke: rgb(51, 51, 51); fill: none; stroke-width: 1px;"/></g><g id="node-name-Slice_RGBA_to_RGB" class="node graph-node" transform="translate(37.57453918457031,318)" style=""><g class="node-item node-item-type node-item-type-tensor" transform="translate(0,0)"><path d="M5,0h65a5,5 0 0 1 5,5v15a0,0 0 0 1 0,0h-75a0,0 0 0 1 0,0v-15a5,5 0 0 1 5,-5z" style="stroke: rgb(0, 0, 0); fill: rgb(89, 66, 59); stroke-width: 0;"/><text x="6" y="13" style="font-family: -apple-system, BlinkMacSystemFont, &quot;Segoe WPC&quot;, &quot;Segoe UI&quot;, Ubuntu, &quot;Droid Sans&quot;, sans-serif, &quot;PingFang SC&quot;; font-size: 11px; text-rendering: geometricprecision; user-select: none; fill: rgb(255, 255, 255);">Slice</text><title>Slice_RGBA_to_RGB</title></g><g class="node-argument-list" transform="translate(0,20)"><path d="M0,0h75a0,0 0 0 1 0,0v37a5,5 0 0 1 -5,5h-65a5,5 0 0 1 -5,-5v-37a0,0 0 0 1 0,0z" style="stroke: rgb(0, 0, 0); fill: rgb(255, 255, 255); stroke-width: 0;"/><g class="node-argument"><rect rx="3" ry="3" x="3" y="3" width="69" height="12" style="fill: transparent;"/><text xml:space="preserve" x="6" y="12" style="font-family: -apple-system, BlinkMacSystemFont, &quot;Segoe WPC&quot;, &quot;Segoe UI&quot;, Ubuntu, &quot;Droid Sans&quot;, sans-serif, &quot;PingFang SC&quot;; font-size: 9px; font-weight: normal; text-rendering: geometricprecision; user-select: none;"><title>int64[1]</title><tspan style="font-weight: bold;">starts</tspan><tspan>〈1〉</tspan></text></g><g class="node-argument"><rect rx="3" ry="3" x="3" y="15" width="69" height="12" style="fill: transparent;"/><text xml:space="preserve" x="6" y="24" style="font-family: -apple-system, BlinkMacSystemFont, &quot;Segoe WPC&quot;, &quot;Segoe UI&quot;, Ubuntu, &quot;Droid Sans&quot;, sans-serif, &quot;PingFang SC&quot;; font-size: 9px; font-weight: normal; text-rendering: geometricprecision; user-select: none;"><title>int64[1]</title><tspan style="font-weight: bold;">ends</tspan><tspan>〈1〉</tspan></text></g><g class="node-argument"><rect rx="3" ry="3" x="3" y="27" width="69" height="12" style="fill: transparent;"/><text xml:space="preserve" x="6" y="36" style="font-family: -apple-system, BlinkMacSystemFont, &quot;Segoe WPC&quot;, &quot;Segoe UI&quot;, Ubuntu, &quot;Droid Sans&quot;, sans-serif, &quot;PingFang SC&quot;; font-size: 9px; font-weight: normal; text-rendering: geometricprecision; user-select: none;"><title>int64[1]</title><tspan style="font-weight: bold;">axes</tspan><tspan>〈1〉</tspan></text></g><line class="node" x1="0" x2="75" y1="0" y2="0" style="stroke: rgb(51, 51, 51); fill: none; stroke-width: 1px;"/></g><path class="node node-border" d="M5,0h65a5,5 0 0 1 5,5v52a5,5 0 0 1 -5,5h-65a5,5 0 0 1 -5,-5v-52a5,5 0 0 1 5,-5z" style="stroke: rgb(51, 51, 51); fill: none; stroke-width: 1px;"/></g><g id="node-name-/conv1/conv1.0/Conv" class="node graph-node" transform="translate(29.518714904785156,421)" style=""><g class="node-item node-item-type node-item-type-layer" transform="translate(0,0)"><path d="M5,0h81.11164855957031a5,5 0 0 1 5,5v15a0,0 0 0 1 0,0h-91.11164855957031a0,0 0 0 1 0,0v-15a5,5 0 0 1 5,-5z" style="stroke: rgb(0, 0, 0); fill: rgb(51, 85, 136); stroke-width: 0;"/><text x="6" y="13" style="font-family: -apple-system, BlinkMacSystemFont, &quot;Segoe WPC&quot;, &quot;Segoe UI&quot;, Ubuntu, &quot;Droid Sans&quot;, sans-serif, &quot;PingFang SC&quot;; font-size: 11px; text-rendering: geometricprecision; user-select: none; fill: rgb(255, 255, 255);">Conv</text><title>/conv1/conv1.0/Conv</title></g><g class="node-argument-list" transform="translate(0,20)"><path d="M0,0h91.11164855957031a0,0 0 0 1 0,0v73a5,5 0 0 1 -5,5h-81.11164855957031a5,5 0 0 1 -5,-5v-73a0,0 0 0 1 0,0z" style="stroke: rgb(0, 0, 0); fill: rgb(255, 255, 255); stroke-width: 0;"/><g class="node-argument"><rect rx="3" ry="3" x="3" y="3" width="85.11164855957031" height="12" style="fill: transparent;"/><text xml:space="preserve" x="6" y="12" style="font-family: -apple-system, BlinkMacSystemFont, &quot;Segoe WPC&quot;, &quot;Segoe UI&quot;, Ubuntu, &quot;Droid Sans&quot;, sans-serif, &quot;PingFang SC&quot;; font-size: 9px; font-weight: normal; text-rendering: geometricprecision; user-select: none;"><title>float16[192,3,3,3]</title><tspan style="font-weight: bold;">W</tspan><tspan>〈192×3×3×3〉</tspan></text></g><g class="node-argument"><rect rx="3" ry="3" x="3" y="15" width="85.11164855957031" height="12" style="fill: transparent;"/><text xml:space="preserve" x="6" y="24" style="font-family: -apple-system, BlinkMacSystemFont, &quot;Segoe WPC&quot;, &quot;Segoe UI&quot;, Ubuntu, &quot;Droid Sans&quot;, sans-serif, &quot;PingFang SC&quot;; font-size: 9px; font-weight: normal; text-rendering: geometricprecision; user-select: none;"><title>float16[192]</title><tspan style="font-weight: bold;">B</tspan><tspan>〈192〉</tspan></text></g><g class="node-argument"><rect rx="3" ry="3" x="3" y="27" width="85.11164855957031" height="12" style="fill: transparent;"/><text xml:space="preserve" x="6" y="36" style="font-family: -apple-system, BlinkMacSystemFont, &quot;Segoe WPC&quot;, &quot;Segoe UI&quot;, Ubuntu, &quot;Droid Sans&quot;, sans-serif, &quot;PingFang SC&quot;; font-size: 9px; font-weight: normal; text-rendering: geometricprecision; user-select: none;"><title>int64[]</title><tspan>dilations</tspan><tspan> = 1, 1</tspan></text></g><g class="node-argument"><rect rx="3" ry="3" x="3" y="39" width="85.11164855957031" height="12" style="fill: transparent;"/><text xml:space="preserve" x="6" y="48" style="font-family: -apple-system, BlinkMacSystemFont, &quot;Segoe WPC&quot;, &quot;Segoe UI&quot;, Ubuntu, &quot;Droid Sans&quot;, sans-serif, &quot;PingFang SC&quot;; font-size: 9px; font-weight: normal; text-rendering: geometricprecision; user-select: none;"><title>int64[]</title><tspan>kernel_shape</tspan><tspan> = 3, 3</tspan></text></g><g class="node-argument"><rect rx="3" ry="3" x="3" y="51" width="85.11164855957031" height="12" style="fill: transparent;"/><text xml:space="preserve" x="6" y="60" style="font-family: -apple-system, BlinkMacSystemFont, &quot;Segoe WPC&quot;, &quot;Segoe UI&quot;, Ubuntu, &quot;Droid Sans&quot;, sans-serif, &quot;PingFang SC&quot;; font-size: 9px; font-weight: normal; text-rendering: geometricprecision; user-select: none;"><title>int64[]</title><tspan>pads</tspan><tspan> = 1, 1, 1, 1</tspan></text></g><g class="node-argument"><rect rx="3" ry="3" x="3" y="63" width="85.11164855957031" height="12" style="fill: transparent;"/><text xml:space="preserve" x="6" y="72" style="font-family: -apple-system, BlinkMacSystemFont, &quot;Segoe WPC&quot;, &quot;Segoe UI&quot;, Ubuntu, &quot;Droid Sans&quot;, sans-serif, &quot;PingFang SC&quot;; font-size: 9px; font-weight: normal; text-rendering: geometricprecision; user-select: none;"><title>int64[]</title><tspan>strides</tspan><tspan> = 1, 1</tspan></text></g><line class="node" x1="0" x2="91.11164855957031" y1="0" y2="0" style="stroke: rgb(51, 51, 51); fill: none; stroke-width: 1px;"/></g><path class="node node-border" d="M5,0h81.11164855957031a5,5 0 0 1 5,5v88a5,5 0 0 1 -5,5h-81.11164855957031a5,5 0 0 1 -5,-5v-88a5,5 0 0 1 5,-5z" style="stroke: rgb(51, 51, 51); fill: none; stroke-width: 1px;"/></g><g id="node-name-/conv1/conv1.1/Relu" class="node graph-node" transform="translate(56.182098388671875,560)" style=""><g class="node-item node-item-type node-item-type-activation" transform="translate(0,0)"><path d="M5,0h27.784881591796875a5,5 0 0 1 5,5v10a5,5 0 0 1 -5,5h-27.784881591796875a5,5 0 0 1 -5,-5v-10a5,5 0 0 1 5,-5z" style="stroke: rgb(0, 0, 0); fill: rgb(112, 41, 33); stroke-width: 0;"/><text x="6" y="13" style="font-family: -apple-system, BlinkMacSystemFont, &quot;Segoe WPC&quot;, &quot;Segoe UI&quot;, Ubuntu, &quot;Droid Sans&quot;, sans-serif, &quot;PingFang SC&quot;; font-size: 11px; text-rendering: geometricprecision; user-select: none; fill: rgb(255, 255, 255);">Relu</text><title>/conv1/conv1.1/Relu</title></g><path class="node node-border" d="M5,0h27.784881591796875a5,5 0 0 1 5,5v10a5,5 0 0 1 -5,5h-27.784881591796875a5,5 0 0 1 -5,-5v-10a5,5 0 0 1 5,-5z" style="stroke: rgb(51, 51, 51); fill: none; stroke-width: 1px;"/></g><g id="node-name-/conv2/conv2.0/Conv" class="node graph-node" transform="translate(29.518714904785156,621)" style=""><g class="node-item node-item-type node-item-type-layer" transform="translate(0,0)"><path d="M5,0h81.11164855957031a5,5 0 0 1 5,5v15a0,0 0 0 1 0,0h-91.11164855957031a0,0 0 0 1 0,0v-15a5,5 0 0 1 5,-5z" style="stroke: rgb(0, 0, 0); fill: rgb(51, 85, 136); stroke-width: 0;"/><text x="6" y="13" style="font-family: -apple-system, BlinkMacSystemFont, &quot;Segoe WPC&quot;, &quot;Segoe UI&quot;, Ubuntu, &quot;Droid Sans&quot;, sans-serif, &quot;PingFang SC&quot;; font-size: 11px; text-rendering: geometricprecision; user-select: none; fill: rgb(255, 255, 255);">Conv</text><title>/conv2/conv2.0/Conv</title></g><g class="node-argument-list" transform="translate(0,20)"><path d="M0,0h91.11164855957031a0,0 0 0 1 0,0v73a5,5 0 0 1 -5,5h-81.11164855957031a5,5 0 0 1 -5,-5v-73a0,0 0 0 1 0,0z" style="stroke: rgb(0, 0, 0); fill: rgb(255, 255, 255); stroke-width: 0;"/><g class="node-argument"><rect rx="3" ry="3" x="3" y="3" width="85.11164855957031" height="12" style="fill: transparent;"/><text xml:space="preserve" x="6" y="12" style="font-family: -apple-system, BlinkMacSystemFont, &quot;Segoe WPC&quot;, &quot;Segoe UI&quot;, Ubuntu, &quot;Droid Sans&quot;, sans-serif, &quot;PingFang SC&quot;; font-size: 9px; font-weight: normal; text-rendering: geometricprecision; user-select: none;"><title>float16[256,192,3,3]</title><tspan style="font-weight: bold;">W</tspan><tspan>〈256×192×3×3〉</tspan></text></g><g class="node-argument"><rect rx="3" ry="3" x="3" y="15" width="85.11164855957031" height="12" style="fill: transparent;"/><text xml:space="preserve" x="6" y="24" style="font-family: -apple-system, BlinkMacSystemFont, &quot;Segoe WPC&quot;, &quot;Segoe UI&quot;, Ubuntu, &quot;Droid Sans&quot;, sans-serif, &quot;PingFang SC&quot;; font-size: 9px; font-weight: normal; text-rendering: geometricprecision; user-select: none;"><title>float16[256]</title><tspan style="font-weight: bold;">B</tspan><tspan>〈256〉</tspan></text></g><g class="node-argument"><rect rx="3" ry="3" x="3" y="27" width="85.11164855957031" height="12" style="fill: transparent;"/><text xml:space="preserve" x="6" y="36" style="font-family: -apple-system, BlinkMacSystemFont, &quot;Segoe WPC&quot;, &quot;Segoe UI&quot;, Ubuntu, &quot;Droid Sans&quot;, sans-serif, &quot;PingFang SC&quot;; font-size: 9px; font-weight: normal; text-rendering: geometricprecision; user-select: none;"><title>int64[]</title><tspan>dilations</tspan><tspan> = 1, 1</tspan></text></g><g class="node-argument"><rect rx="3" ry="3" x="3" y="39" width="85.11164855957031" height="12" style="fill: transparent;"/><text xml:space="preserve" x="6" y="48" style="font-family: -apple-system, BlinkMacSystemFont, &quot;Segoe WPC&quot;, &quot;Segoe UI&quot;, Ubuntu, &quot;Droid Sans&quot;, sans-serif, &quot;PingFang SC&quot;; font-size: 9px; font-weight: normal; text-rendering: geometricprecision; user-select: none;"><title>int64[]</title><tspan>kernel_shape</tspan><tspan> = 3, 3</tspan></text></g><g class="node-argument"><rect rx="3" ry="3" x="3" y="51" width="85.11164855957031" height="12" style="fill: transparent;"/><text xml:space="preserve" x="6" y="60" style="font-family: -apple-system, BlinkMacSystemFont, &quot;Segoe WPC&quot;, &quot;Segoe UI&quot;, Ubuntu, &quot;Droid Sans&quot;, sans-serif, &quot;PingFang SC&quot;; font-size: 9px; font-weight: normal; text-rendering: geometricprecision; user-select: none;"><title>int64[]</title><tspan>pads</tspan><tspan> = 1, 1, 1, 1</tspan></text></g><g class="node-argument"><rect rx="3" ry="3" x="3" y="63" width="85.11164855957031" height="12" style="fill: transparent;"/><text xml:space="preserve" x="6" y="72" style="font-family: -apple-system, BlinkMacSystemFont, &quot;Segoe WPC&quot;, &quot;Segoe UI&quot;, Ubuntu, &quot;Droid Sans&quot;, sans-serif, &quot;PingFang SC&quot;; font-size: 9px; font-weight: normal; text-rendering: geometricprecision; user-select: none;"><title>int64[]</title><tspan>strides</tspan><tspan> = 1, 1</tspan></text></g><line class="node" x1="0" x2="91.11164855957031" y1="0" y2="0" style="stroke: rgb(51, 51, 51); fill: none; stroke-width: 1px;"/></g><path class="node node-border" d="M5,0h81.11164855957031a5,5 0 0 1 5,5v88a5,5 0 0 1 -5,5h-81.11164855957031a5,5 0 0 1 -5,-5v-88a5,5 0 0 1 5,-5z" style="stroke: rgb(51, 51, 51); fill: none; stroke-width: 1px;"/></g><g id="node-name-/conv2/conv2.1/Relu" class="node graph-node" transform="translate(56.182098388671875,760)" style=""><g class="node-item node-item-type node-item-type-activation" transform="translate(0,0)"><path d="M5,0h27.784881591796875a5,5 0 0 1 5,5v10a5,5 0 0 1 -5,5h-27.784881591796875a5,5 0 0 1 -5,-5v-10a5,5 0 0 1 5,-5z" style="stroke: rgb(0, 0, 0); fill: rgb(112, 41, 33); stroke-width: 0;"/><text x="6" y="13" style="font-family: -apple-system, BlinkMacSystemFont, &quot;Segoe WPC&quot;, &quot;Segoe UI&quot;, Ubuntu, &quot;Droid Sans&quot;, sans-serif, &quot;PingFang SC&quot;; font-size: 11px; text-rendering: geometricprecision; user-select: none; fill: rgb(255, 255, 255);">Relu</text><title>/conv2/conv2.1/Relu</title></g><path class="node node-border" d="M5,0h27.784881591796875a5,5 0 0 1 5,5v10a5,5 0 0 1 -5,5h-27.784881591796875a5,5 0 0 1 -5,-5v-10a5,5 0 0 1 5,-5z" style="stroke: rgb(51, 51, 51); fill: none; stroke-width: 1px;"/></g><g id="node-name-/conv3/Conv" class="node graph-node" transform="translate(29.518714904785156,821)" style=""><g class="node-item node-item-type node-item-type-layer" transform="translate(0,0)"><path d="M5,0h81.11164855957031a5,5 0 0 1 5,5v15a0,0 0 0 1 0,0h-91.11164855957031a0,0 0 0 1 0,0v-15a5,5 0 0 1 5,-5z" style="stroke: rgb(0, 0, 0); fill: rgb(51, 85, 136); stroke-width: 0;"/><text x="6" y="13" style="font-family: -apple-system, BlinkMacSystemFont, &quot;Segoe WPC&quot;, &quot;Segoe UI&quot;, Ubuntu, &quot;Droid Sans&quot;, sans-serif, &quot;PingFang SC&quot;; font-size: 11px; text-rendering: geometricprecision; user-select: none; fill: rgb(255, 255, 255);">Conv</text><title>/conv3/Conv</title></g><g class="node-argument-list" transform="translate(0,20)"><path d="M0,0h91.11164855957031a0,0 0 0 1 0,0v73a5,5 0 0 1 -5,5h-81.11164855957031a5,5 0 0 1 -5,-5v-73a0,0 0 0 1 0,0z" style="stroke: rgb(0, 0, 0); fill: rgb(255, 255, 255); stroke-width: 0;"/><g class="node-argument"><rect rx="3" ry="3" x="3" y="3" width="85.11164855957031" height="12" style="fill: transparent;"/><text xml:space="preserve" x="6" y="12" style="font-family: -apple-system, BlinkMacSystemFont, &quot;Segoe WPC&quot;, &quot;Segoe UI&quot;, Ubuntu, &quot;Droid Sans&quot;, sans-serif, &quot;PingFang SC&quot;; font-size: 9px; font-weight: normal; text-rendering: geometricprecision; user-select: none;"><title>float16[3,256,3,3]</title><tspan style="font-weight: bold;">W</tspan><tspan>〈3×256×3×3〉</tspan></text></g><g class="node-argument"><rect rx="3" ry="3" x="3" y="15" width="85.11164855957031" height="12" style="fill: transparent;"/><text xml:space="preserve" x="6" y="24" style="font-family: -apple-system, BlinkMacSystemFont, &quot;Segoe WPC&quot;, &quot;Segoe UI&quot;, Ubuntu, &quot;Droid Sans&quot;, sans-serif, &quot;PingFang SC&quot;; font-size: 9px; font-weight: normal; text-rendering: geometricprecision; user-select: none;"><title>float16[3]</title><tspan style="font-weight: bold;">B</tspan><tspan>〈3〉</tspan></text></g><g class="node-argument"><rect rx="3" ry="3" x="3" y="27" width="85.11164855957031" height="12" style="fill: transparent;"/><text xml:space="preserve" x="6" y="36" style="font-family: -apple-system, BlinkMacSystemFont, &quot;Segoe WPC&quot;, &quot;Segoe UI&quot;, Ubuntu, &quot;Droid Sans&quot;, sans-serif, &quot;PingFang SC&quot;; font-size: 9px; font-weight: normal; text-rendering: geometricprecision; user-select: none;"><title>int64[]</title><tspan>dilations</tspan><tspan> = 1, 1</tspan></text></g><g class="node-argument"><rect rx="3" ry="3" x="3" y="39" width="85.11164855957031" height="12" style="fill: transparent;"/><text xml:space="preserve" x="6" y="48" style="font-family: -apple-system, BlinkMacSystemFont, &quot;Segoe WPC&quot;, &quot;Segoe UI&quot;, Ubuntu, &quot;Droid Sans&quot;, sans-serif, &quot;PingFang SC&quot;; font-size: 9px; font-weight: normal; text-rendering: geometricprecision; user-select: none;"><title>int64[]</title><tspan>kernel_shape</tspan><tspan> = 3, 3</tspan></text></g><g class="node-argument"><rect rx="3" ry="3" x="3" y="51" width="85.11164855957031" height="12" style="fill: transparent;"/><text xml:space="preserve" x="6" y="60" style="font-family: -apple-system, BlinkMacSystemFont, &quot;Segoe WPC&quot;, &quot;Segoe UI&quot;, Ubuntu, &quot;Droid Sans&quot;, sans-serif, &quot;PingFang SC&quot;; font-size: 9px; font-weight: normal; text-rendering: geometricprecision; user-select: none;"><title>int64[]</title><tspan>pads</tspan><tspan> = 1, 1, 1, 1</tspan></text></g><g class="node-argument"><rect rx="3" ry="3" x="3" y="63" width="85.11164855957031" height="12" style="fill: transparent;"/><text xml:space="preserve" x="6" y="72" style="font-family: -apple-system, BlinkMacSystemFont, &quot;Segoe WPC&quot;, &quot;Segoe UI&quot;, Ubuntu, &quot;Droid Sans&quot;, sans-serif, &quot;PingFang SC&quot;; font-size: 9px; font-weight: normal; text-rendering: geometricprecision; user-select: none;"><title>int64[]</title><tspan>strides</tspan><tspan> = 1, 1</tspan></text></g><line class="node" x1="0" x2="91.11164855957031" y1="0" y2="0" style="stroke: rgb(51, 51, 51); fill: none; stroke-width: 1px;"/></g><path class="node node-border" d="M5,0h81.11164855957031a5,5 0 0 1 5,5v88a5,5 0 0 1 -5,5h-81.11164855957031a5,5 0 0 1 -5,-5v-88a5,5 0 0 1 5,-5z" style="stroke: rgb(51, 51, 51); fill: none; stroke-width: 1px;"/></g><g id="node-name-/Mul" class="node graph-node" transform="translate(37.57453918457031,960)" style=""><g class="node-item node-item-type" transform="translate(0,0)"><path d="M5,0h65a5,5 0 0 1 5,5v15a0,0 0 0 1 0,0h-75a0,0 0 0 1 0,0v-15a5,5 0 0 1 5,-5z" style="stroke: rgb(0, 0, 0); fill: rgb(0, 0, 0); stroke-width: 0;"/><text x="6" y="13" style="font-family: -apple-system, BlinkMacSystemFont, &quot;Segoe WPC&quot;, &quot;Segoe UI&quot;, Ubuntu, &quot;Droid Sans&quot;, sans-serif, &quot;PingFang SC&quot;; font-size: 11px; text-rendering: geometricprecision; user-select: none; fill: rgb(255, 255, 255);">Mul</text><title>/Mul</title></g><g class="node-argument-list" transform="translate(0,20)"><path d="M0,0h75a0,0 0 0 1 0,0v13a5,5 0 0 1 -5,5h-65a5,5 0 0 1 -5,-5v-13a0,0 0 0 1 0,0z" style="stroke: rgb(0, 0, 0); fill: rgb(255, 255, 255); stroke-width: 0;"/><g class="node-argument"><rect rx="3" ry="3" x="3" y="3" width="69" height="12" style="fill: transparent;"/><text xml:space="preserve" x="6" y="12" style="font-family: -apple-system, BlinkMacSystemFont, &quot;Segoe WPC&quot;, &quot;Segoe UI&quot;, Ubuntu, &quot;Droid Sans&quot;, sans-serif, &quot;PingFang SC&quot;; font-size: 9px; font-weight: normal; text-rendering: geometricprecision; user-select: none;"><title>float16</title><tspan>B</tspan><tspan> = 255</tspan></text></g><line class="node" x1="0" x2="75" y1="0" y2="0" style="stroke: rgb(51, 51, 51); fill: none; stroke-width: 1px;"/></g><path class="node node-border" d="M5,0h65a5,5 0 0 1 5,5v28a5,5 0 0 1 -5,5h-65a5,5 0 0 1 -5,-5v-28a5,5 0 0 1 5,-5z" style="stroke: rgb(51, 51, 51); fill: none; stroke-width: 1px;"/></g><g id="node-name-/Concat" class="node graph-node" transform="translate(37.57453918457031,1039)" style=""><g class="node-item node-item-type node-item-type-tensor" transform="translate(0,0)"><path d="M5,0h65a5,5 0 0 1 5,5v15a0,0 0 0 1 0,0h-75a0,0 0 0 1 0,0v-15a5,5 0 0 1 5,-5z" style="stroke: rgb(0, 0, 0); fill: rgb(89, 66, 59); stroke-width: 0;"/><text x="6" y="13" style="font-family: -apple-system, BlinkMacSystemFont, &quot;Segoe WPC&quot;, &quot;Segoe UI&quot;, Ubuntu, &quot;Droid Sans&quot;, sans-serif, &quot;PingFang SC&quot;; font-size: 11px; text-rendering: geometricprecision; user-select: none; fill: rgb(255, 255, 255);">Concat</text><title>/Concat</title></g><g class="node-argument-list" transform="translate(0,20)"><path d="M0,0h75a0,0 0 0 1 0,0v25a5,5 0 0 1 -5,5h-65a5,5 0 0 1 -5,-5v-25a0,0 0 0 1 0,0z" style="stroke: rgb(0, 0, 0); fill: rgb(255, 255, 255); stroke-width: 0;"/><g class="node-argument"><rect rx="3" ry="3" x="3" y="3" width="69" height="12" style="fill: transparent;"/><text xml:space="preserve" x="6" y="12" style="font-family: -apple-system, BlinkMacSystemFont, &quot;Segoe WPC&quot;, &quot;Segoe UI&quot;, Ubuntu, &quot;Droid Sans&quot;, sans-serif, &quot;PingFang SC&quot;; font-size: 9px; font-weight: normal; text-rendering: geometricprecision; user-select: none;"><title>int64</title><tspan>axis</tspan><tspan> = 1</tspan></text></g><g class="node-argument"><rect rx="3" ry="3" x="3" y="15" width="69" height="12" style="fill: transparent;"/><text xml:space="preserve" x="6" y="24" style="font-family: -apple-system, BlinkMacSystemFont, &quot;Segoe WPC&quot;, &quot;Segoe UI&quot;, Ubuntu, &quot;Droid Sans&quot;, sans-serif, &quot;PingFang SC&quot;; font-size: 9px; font-weight: normal; text-rendering: geometricprecision; user-select: none;"><tspan style="font-weight: bold;">〈…〉</tspan><tspan/></text></g><line class="node" x1="0" x2="75" y1="0" y2="0" style="stroke: rgb(51, 51, 51); fill: none; stroke-width: 1px;"/></g><path class="node node-border" d="M5,0h65a5,5 0 0 1 5,5v40a5,5 0 0 1 -5,5h-65a5,5 0 0 1 -5,-5v-40a5,5 0 0 1 5,-5z" style="stroke: rgb(51, 51, 51); fill: none; stroke-width: 1px;"/></g><g id="node-name-Clip_Output" class="node graph-node" transform="translate(37.57453918457031,1130)" style=""><g class="node-item node-item-type node-item-type-activation" transform="translate(0,0)"><path d="M5,0h65a5,5 0 0 1 5,5v15a0,0 0 0 1 0,0h-75a0,0 0 0 1 0,0v-15a5,5 0 0 1 5,-5z" style="stroke: rgb(0, 0, 0); fill: rgb(112, 41, 33); stroke-width: 0;"/><text x="6" y="13" style="font-family: -apple-system, BlinkMacSystemFont, &quot;Segoe WPC&quot;, &quot;Segoe UI&quot;, Ubuntu, &quot;Droid Sans&quot;, sans-serif, &quot;PingFang SC&quot;; font-size: 11px; text-rendering: geometricprecision; user-select: none; fill: rgb(255, 255, 255);">Clip</text><title>Clip_Output</title></g><g class="node-argument-list" transform="translate(0,20)"><path d="M0,0h75a0,0 0 0 1 0,0v25a5,5 0 0 1 -5,5h-65a5,5 0 0 1 -5,-5v-25a0,0 0 0 1 0,0z" style="stroke: rgb(0, 0, 0); fill: rgb(255, 255, 255); stroke-width: 0;"/><g class="node-argument"><rect rx="3" ry="3" x="3" y="3" width="69" height="12" style="fill: transparent;"/><text xml:space="preserve" x="6" y="12" style="font-family: -apple-system, BlinkMacSystemFont, &quot;Segoe WPC&quot;, &quot;Segoe UI&quot;, Ubuntu, &quot;Droid Sans&quot;, sans-serif, &quot;PingFang SC&quot;; font-size: 9px; font-weight: normal; text-rendering: geometricprecision; user-select: none;"><title>float16</title><tspan>min</tspan><tspan> = 0</tspan></text></g><g class="node-argument"><rect rx="3" ry="3" x="3" y="15" width="69" height="12" style="fill: transparent;"/><text xml:space="preserve" x="6" y="24" style="font-family: -apple-system, BlinkMacSystemFont, &quot;Segoe WPC&quot;, &quot;Segoe UI&quot;, Ubuntu, &quot;Droid Sans&quot;, sans-serif, &quot;PingFang SC&quot;; font-size: 9px; font-weight: normal; text-rendering: geometricprecision; user-select: none;"><title>float16</title><tspan>max</tspan><tspan> = 255</tspan></text></g><line class="node" x1="0" x2="75" y1="0" y2="0" style="stroke: rgb(51, 51, 51); fill: none; stroke-width: 1px;"/></g><path class="node node-border" d="M5,0h65a5,5 0 0 1 5,5v40a5,5 0 0 1 -5,5h-65a5,5 0 0 1 -5,-5v-40a5,5 0 0 1 5,-5z" style="stroke: rgb(51, 51, 51); fill: none; stroke-width: 1px;"/></g><g id="node-name-Cast_To_Uint8" class="node graph-node" transform="translate(37.57453918457031,1221)" style=""><g class="node-item node-item-type" transform="translate(0,0)"><path d="M5,0h65a5,5 0 0 1 5,5v15a0,0 0 0 1 0,0h-75a0,0 0 0 1 0,0v-15a5,5 0 0 1 5,-5z" style="stroke: rgb(0, 0, 0); fill: rgb(0, 0, 0); stroke-width: 0;"/><text x="6" y="13" style="font-family: -apple-system, BlinkMacSystemFont, &quot;Segoe WPC&quot;, &quot;Segoe UI&quot;, Ubuntu, &quot;Droid Sans&quot;, sans-serif, &quot;PingFang SC&quot;; font-size: 11px; text-rendering: geometricprecision; user-select: none; fill: rgb(255, 255, 255);">Cast</text><title>Cast_To_Uint8</title></g><g class="node-argument-list" transform="translate(0,20)"><path d="M0,0h75a0,0 0 0 1 0,0v13a5,5 0 0 1 -5,5h-65a5,5 0 0 1 -5,-5v-13a0,0 0 0 1 0,0z" style="stroke: rgb(0, 0, 0); fill: rgb(255, 255, 255); stroke-width: 0;"/><g class="node-argument"><rect rx="3" ry="3" x="3" y="3" width="69" height="12" style="fill: transparent;"/><text xml:space="preserve" x="6" y="12" style="font-family: -apple-system, BlinkMacSystemFont, &quot;Segoe WPC&quot;, &quot;Segoe UI&quot;, Ubuntu, &quot;Droid Sans&quot;, sans-serif, &quot;PingFang SC&quot;; font-size: 9px; font-weight: normal; text-rendering: geometricprecision; user-select: none;"><title>DataType</title><tspan>to</tspan><tspan> = uint8</tspan></text></g><line class="node" x1="0" x2="75" y1="0" y2="0" style="stroke: rgb(51, 51, 51); fill: none; stroke-width: 1px;"/></g><path class="node node-border" d="M5,0h65a5,5 0 0 1 5,5v28a5,5 0 0 1 -5,5h-65a5,5 0 0 1 -5,-5v-28a5,5 0 0 1 5,-5z" style="stroke: rgb(51, 51, 51); fill: none; stroke-width: 1px;"/></g><g id="node-name-Transpose_Planar_to_Chunky" class="node graph-node" transform="translate(36.69953918457031,1300)" style=""><g class="node-item node-item-type node-item-type-transform" transform="translate(0,0)"><path d="M5,0h66.75a5,5 0 0 1 5,5v15a0,0 0 0 1 0,0h-76.75a0,0 0 0 1 0,0v-15a5,5 0 0 1 5,-5z" style="stroke: rgb(0, 0, 0); fill: rgb(51, 85, 68); stroke-width: 0;"/><text x="6" y="13" style="font-family: -apple-system, BlinkMacSystemFont, &quot;Segoe WPC&quot;, &quot;Segoe UI&quot;, Ubuntu, &quot;Droid Sans&quot;, sans-serif, &quot;PingFang SC&quot;; font-size: 11px; text-rendering: geometricprecision; user-select: none; fill: rgb(255, 255, 255);">Transpose</text><title>Transpose_Planar_to_Chunky</title></g><g class="node-argument-list" transform="translate(0,20)"><path d="M0,0h76.75a0,0 0 0 1 0,0v13a5,5 0 0 1 -5,5h-66.75a5,5 0 0 1 -5,-5v-13a0,0 0 0 1 0,0z" style="stroke: rgb(0, 0, 0); fill: rgb(255, 255, 255); stroke-width: 0;"/><g class="node-argument"><rect rx="3" ry="3" x="3" y="3" width="70.75" height="12" style="fill: transparent;"/><text xml:space="preserve" x="6" y="12" style="font-family: -apple-system, BlinkMacSystemFont, &quot;Segoe WPC&quot;, &quot;Segoe UI&quot;, Ubuntu, &quot;Droid Sans&quot;, sans-serif, &quot;PingFang SC&quot;; font-size: 9px; font-weight: normal; text-rendering: geometricprecision; user-select: none;"><title>int64[]</title><tspan>perm</tspan><tspan> = 0, 2, 3, 1</tspan></text></g><line class="node" x1="0" x2="76.75" y1="0" y2="0" style="stroke: rgb(51, 51, 51); fill: none; stroke-width: 1px;"/></g><path class="node node-border" d="M5,0h66.75a5,5 0 0 1 5,5v28a5,5 0 0 1 -5,5h-66.75a5,5 0 0 1 -5,-5v-28a5,5 0 0 1 5,-5z" style="stroke: rgb(51, 51, 51); fill: none; stroke-width: 1px;"/></g><g class="node" transform="translate(0,1379)" style=""><g class="node-item graph-item-output" transform="translate(0,0)"><path d="M5,0h140.14907836914062a5,5 0 0 1 5,5v10a5,5 0 0 1 -5,5h-140.14907836914062a5,5 0 0 1 -5,-5v-10a5,5 0 0 1 5,-5z" style="stroke: rgb(0, 0, 0); fill: rgb(238, 238, 238); stroke-width: 0;"/><text x="6" y="13" style="font-family: -apple-system, BlinkMacSystemFont, &quot;Segoe WPC&quot;, &quot;Segoe UI&quot;, Ubuntu, &quot;Droid Sans&quot;, sans-serif, &quot;PingFang SC&quot;; font-size: 11px; text-rendering: geometricprecision; user-select: none;">output_rgba_uint8_chunky</text><title>uint8[1,576,752,4]</title></g><path class="node node-border" d="M5,0h140.14907836914062a5,5 0 0 1 5,5v10a5,5 0 0 1 -5,5h-140.14907836914062a5,5 0 0 1 -5,-5v-10a5,5 0 0 1 5,-5z" style="stroke: rgb(51, 51, 51); fill: none; stroke-width: 1px;"/></g></g></g></svg>